<svg width="550" height="550" viewBox="-60 -60 550 550" fill="none" xmlns="http://www.w3.org/2000/svg">
<circle cx="215" cy="220" r="270" stroke='none' fill="#2a9d8f" />
<path d="M74 366.5L82.5 354.5L94 176.5L349.5 184L346 360.5L365.5 366.5C374.167 368 395.6 371.1 412 371.5C428.4 371.9 429.5 358 428 351V311.5V262.5C427.833 248.333 426.5 212.8 422.5 184C417.5 148 418 163 407.5 126C397 89 390.5 86.5 376.5 66C362.5 45.5 347.5 40 330.5 30.5C313.5 21 299.5 12.5 273 8C246.5 3.5 213 -0.999996 174 1C135 3 126 13.5 100 30.5C74 47.5 59.5 64 39.5 92.5C23.5 115.3 15.8333 146 14 158.5L6 208.5L0 258V304.5V351C0 369 15 368.833 22.5 366.5H74Z" fill="#264653"/>
<path d="M98.5 162.5L87.5 171L84 189.5L68 195.5L55 203.5L42 213L32.5 222.5L23.5 237.5L26.5 256L36 267.5L47 280.5L60.5 290L78.5 299V315V337V360.5L87.5 374.5L102 386.5L120 400L136 409.5L154.5 418C164.333 419 183.1 421 179.5 421H219.5H254L276 418L292 413L305 406L328 394.5L340.5 380L351.5 360.5L357.5 337L360.5 315L378 308L394 296L408.5 284L413 267.5V250.5L408.5 231.5L397.5 213L382 203.5L366.5 195.5V179.5L360.5 171L340.5 162.5L314 154L283.5 146L250 141.5H212H179.5L147.5 146L120 154L98.5 162.5Z" fill="#E76F51"/>
<path d="M338 212C338 232.987 322.106 250 302.5 250C282.894 250 267 232.987 267 212C267 191.013 282.894 174 302.5 174C322.106 174 338 191.013 338 212Z" fill="#F4A261"/>
<rect x="268.81" y="161" width="25.9863" height="11.2984" rx="5" transform="rotate(43.727 268.81 161)" fill="#264653"/>
<rect x="314.185" y="152.834" width="25.9863" height="11.2984" rx="5" transform="rotate(94.2326 314.185 152.834)" fill="#264653"/>
<rect x="349.325" y="172.959" width="25.9863" height="11.2984" rx="5" transform="rotate(134.783 349.325 172.959)" fill="#264653"/>
<path d="M177 209C177 229.987 161.106 247 141.5 247C121.894 247 106 229.987 106 209C106 188.013 121.894 171 141.5 171C161.106 171 177 188.013 177 209Z" fill="#F4A261"/>
<rect x="104.81" y="162" width="25.9863" height="11.2984" rx="5" transform="rotate(43.727 104.81 162)" fill="#264653"/>
<rect x="143.267" y="148" width="25.9863" height="11.2984" rx="5" transform="rotate(85.7559 143.267 148)" fill="#264653"/>
<rect x="185.325" y="164.959" width="25.9863" height="11.2984" rx="5" transform="rotate(134.783 185.325 164.959)" fill="#264653"/>
<path d="M312.486 347.978C329.649 309.942 302.674 306.706 287.041 309.843C276.729 312.154 254.41 318.064 247.625 323.215C239.143 329.653 215.693 332.13 204.218 328.168C195.037 324.998 184.427 319.253 180.269 316.777C165.8 308.192 134.966 293.103 127.382 301.423C117.902 311.824 110.418 332.13 131.872 357.388C153.326 382.647 291.032 395.524 312.486 347.978Z" fill="#F4A261"/>
<path d="M154.143 304.541L143 317L137 327.5L131.5 341L129.143 355.541" stroke="#264653" stroke-width="7"/>
<path d="M285.245 310.688L294 320.5L299 332L302.5 345.5L304.245 357.688" stroke="#264653" stroke-width="7"/>
<path d="M192.486 322.317L189.5 337.5L187.486 349L187.486 364L187.486 377.317" stroke="#264653" stroke-width="7"/>
<path d="M240.1 325.523L244.871 338.542L246.655 351.272L247.4 379.977" stroke="#264653" stroke-width="7"/>
<path d="M66.5 229V238L61 237L55.5 235L51.5 233L47 235V239.5L51.5 242L57 243.5L62 246.5L65.5 249V252.5V263L66.5 271.5L69 276.5H74.5L76.5 272.5L75.5 266.5L74.5 256.5L75.5 246.5V238L76.5 228.5L78.5 221.5V215.5L75.5 212.5H71.5L69 219.5L66.5 229Z" fill="#F4A261"/>
<path d="M364 281.5V288L367.5 290.5L371 288L372.5 283L374 276.5V270.5L377 267.5L380.5 262L384.5 258.5L387.5 256H392.5L393.5 252.5L392.5 249L389.5 246.5H386L382 249L378.5 253.5L374 256L372.5 250.5V244V239L371 235L367.5 232.5L364 235V239L365 244V249V253.5V259.5V267.5V274.5L364 281.5Z" fill="#F4A261"/>
<path d="M211 188.5H238C244.4 189.7 247 198 247.5 202L250.5 235L252.5 259V280C252.333 282.167 249.2 288.7 238 297.5C226.8 306.3 213.667 301.167 208.5 297.5L199.5 290.5L192 282L194 252.5C195.167 240.833 197.9 214.7 199.5 203.5C201.1 192.3 207.833 188.833 211 188.5Z" fill="#F4A261"/>
<path d="M321.17 193.773C324.806 197.949 326.999 203.233 327.395 208.775C327.791 214.317 326.367 219.794 323.352 224.324C320.338 228.853 315.908 232.171 310.777 233.744C305.646 235.317 300.112 235.052 295.067 232.993C290.022 230.933 285.759 227.2 282.966 222.392C280.172 217.585 279.01 211.985 279.666 206.493C280.323 201.001 282.761 195.938 286.586 192.119C290.412 188.3 295.402 185.947 300.755 185.44L303.474 210.047L321.17 193.773Z" fill="#264653"/>
<path d="M160.109 193.141C163.59 197.138 165.689 202.197 166.068 207.501C166.447 212.806 165.084 218.049 162.198 222.385C159.313 226.72 155.073 229.896 150.161 231.402C145.249 232.907 139.952 232.654 135.123 230.683C130.294 228.711 126.213 225.137 123.539 220.536C120.865 215.934 119.753 210.573 120.381 205.317C121.01 200.06 123.343 195.213 127.005 191.558C130.667 187.902 135.444 185.65 140.567 185.165L143.17 208.718L160.109 193.141Z" fill="#264653"/>
</svg>
